HIERARCHY
ROOT Hips
{
	OFFSET -0.001795 -0.223333 0.028219
	CHANNELS 6 Xposition Yposition Zposition Zrotation Yrotation Xrotation 
	JOINT LeftUpLeg
	{
		OFFSET 0.069520 -0.091406 -0.006815
		CHANNELS 3 Zrotation Yrotation Xrotation
		JOINT LeftLeg
		{
			OFFSET 0.034277 -0.375199 -0.004496
			CHANNELS 3 Zrotation Yrotation Xrotation
			JOINT LeftFoot
			{
				OFFSET -0.013596 -0.397961 -0.043693
				CHANNELS 3 Zrotation Yrotation Xrotation
				JOINT LeftToe
				{
					OFFSET 0.026358 -0.055791 0.119288
					CHANNELS 3 Zrotation Yrotation Xrotation
					End Site
					{
						OFFSET 0.000000 0.000000 0.000000
					}
				}
			}
		}
	}
	JOINT RightUpLeg
	{
		OFFSET -0.067670 -0.090522 -0.004320
		CHANNELS 3 Zrotation Yrotation Xrotation
		JOINT RightLeg
		{
			OFFSET -0.038290 -0.382569 -0.008850
			CHANNELS 3 Zrotation Yrotation Xrotation
			JOINT RightFoot
			{
				OFFSET 0.015774 -0.398415 -0.042312
				CHANNELS 3 Zrotation Yrotation Xrotation
				JOINT RightToe
				{
					OFFSET -0.025372 -0.048144 0.123348
					CHANNELS 3 Zrotation Yrotation Xrotation
					End Site
					{
						OFFSET 0.000000 0.000000 0.000000
					}
				}
			}
		}
	}
	JOINT Spine
	{
		OFFSET -0.002533 0.108963 -0.026696
		CHANNELS 3 Zrotation Yrotation Xrotation
		JOINT Spine1
		{
			OFFSET 0.005487 0.135180 0.001092
			CHANNELS 3 Zrotation Yrotation Xrotation
			JOINT Spine2
			{
				OFFSET 0.001457 0.052922 0.025425
				CHANNELS 3 Zrotation Yrotation Xrotation
				JOINT Neck
				{
					OFFSET -0.002778 0.213870 -0.042857
					CHANNELS 3 Zrotation Yrotation Xrotation
					JOINT Head
					{
						OFFSET 0.005152 0.064970 0.051349
						CHANNELS 3 Zrotation Yrotation Xrotation
						End Site
						{
							OFFSET 0.000000 0.000000 0.000000
						}
					}
				}
				JOINT LeftShoulder
				{
					OFFSET 0.078845 0.121749 -0.034090
					CHANNELS 3 Zrotation Yrotation Xrotation
					JOINT LeftArm
					{
						OFFSET 0.090977 0.030469 -0.008868
						CHANNELS 3 Zrotation Yrotation Xrotation
						JOINT LeftForeArm
						{
							OFFSET 0.259612 -0.012772 -0.027456
							CHANNELS 3 Zrotation Yrotation Xrotation
							JOINT LeftHand
							{
								OFFSET 0.249234 0.008986 -0.001171
								CHANNELS 3 Zrotation Yrotation Xrotation
								End Site
								{
									OFFSET 0.000000 0.000000 0.000000
								}
							}
						}
					}
				}
				JOINT RightShoulder
				{
					OFFSET -0.081759 0.118833 -0.038615
					CHANNELS 3 Zrotation Yrotation Xrotation
					JOINT RightArm
					{
						OFFSET -0.096012 0.032551 -0.009143
						CHANNELS 3 Zrotation Yrotation Xrotation
						JOINT RightForeArm
						{
							OFFSET -0.253742 -0.013329 -0.021401
							CHANNELS 3 Zrotation Yrotation Xrotation
							JOINT RightHand
							{
								OFFSET -0.255298 0.007772 -0.005559
								CHANNELS 3 Zrotation Yrotation Xrotation
								End Site
								{
									OFFSET 0.000000 0.000000 0.000000
								}
							}
						}
					}
				}
			}
		}
	}
}
MOTION
Frames: 9
Frame Time: 0.050000
-0.050805 0.957707 0.006113 -2.531907 -7.502019 12.462671 5.343979 -0.508640 -8.567083 1.549054 0.135461 -6.406803 1.019425 5.662561 13.663292 0.000000 0.000000 0.000000 0.284621 1.064469 -10.411882 -4.121780 -0.277989 -9.116935 5.019721 -0.103695 19.014342 0.000000 0.000000 0.000000 3.067890 -0.283018 1.829099 -1.935380 0.874016 -2.702763 -5.327040 5.673891 4.757193 11.650095 -6.061581 -13.956097 0.000000 0.000000 0.000000 5.589917 -18.555340 5.974127 -15.955905 -48.551854 2.497697 9.672237 -6.840211 -0.304136 0.000000 0.000000 0.000000 2.813750 11.881214 4.478540 63.429616 55.090389 28.014430 -11.838236 46.922369 -2.711901 0.000000 0.000000 0.000000 
-0.050516 0.958051 0.006067 -2.385985 -7.240225 12.470672 5.091828 -0.527043 -8.608331 1.585883 0.136697 -6.460937 0.623254 5.186636 14.214411 0.000000 0.000000 0.000000 -0.166261 1.057184 -10.440040 -3.966171 -0.276469 -9.056443 5.125471 0.014878 19.279423 0.000000 0.000000 0.000000 3.034546 -0.303718 2.167401 -1.996801 0.896022 -3.097711 -5.784698 5.638925 4.982836 12.237260 -6.311953 -14.490472 0.000000 0.000000 0.000000 5.386659 -17.872138 5.783221 -16.175821 -48.165539 2.500319 11.884111 -10.500342 -0.687989 0.000000 0.000000 0.000000 2.965219 11.197045 4.234371 62.918814 53.693612 26.739560 -15.255013 54.129426 -4.775326 0.000000 0.000000 0.000000 
-0.050107 0.957854 0.006721 -2.196007 -6.986713 12.395882 4.911548 -0.529814 -8.364672 1.357633 0.157245 -6.590353 0.549159 5.158527 14.438501 0.000000 0.000000 0.000000 -0.243450 1.028058 -10.193681 -4.270949 -0.285187 -9.248137 5.241983 0.307033 19.190186 0.000000 0.000000 0.000000 3.184336 -0.328511 2.385997 -2.311007 1.030342 -3.204190 -6.164389 5.973506 5.044722 12.244496 -6.257131 -14.588492 0.000000 0.000000 0.000000 4.367906 -17.591980 5.750280 -16.907194 -47.413392 2.620216 13.919427 -16.759852 -1.445474 0.000000 0.000000 0.000000 3.878346 10.323109 3.979571 61.304753 51.558608 24.448401 -16.217897 60.678372 -5.852451 0.000000 0.000000 0.000000 
-0.049754 0.957570 0.007731 -2.039614 -7.056547 12.259893 5.055101 -0.504255 -7.915400 1.151558 0.176154 -6.729128 0.501558 4.998617 14.112334 0.000000 0.000000 0.000000 -0.555714 1.003134 -10.021470 -4.155855 -0.289727 -9.301050 5.694608 0.960414 19.426589 0.000000 0.000000 0.000000 3.061661 -0.331778 2.586475 -2.199240 0.978416 -3.454220 -6.633793 6.531068 5.379156 12.527792 -6.199288 -15.488846 0.000000 0.000000 0.000000 3.718814 -17.320152 5.687728 -20.132006 -47.119074 3.615675 18.260965 -22.814971 -2.914435 0.000000 0.000000 0.000000 4.331584 10.140727 3.986930 60.568854 50.344814 23.302952 -15.019460 64.256260 -5.343268 0.000000 0.000000 0.000000 
-0.049673 0.957000 0.008298 -1.924500 -7.375096 12.324802 4.861847 -0.487816 -7.334401 1.253709 0.214178 -7.552000 0.210066 4.598638 14.568671 0.000000 0.000000 0.000000 -0.703963 0.980365 -9.826324 -4.020223 -0.307338 -9.565713 5.667215 0.842527 19.449185 0.000000 0.000000 0.000000 3.268761 -0.322961 2.232604 -2.804215 1.249080 -2.802063 -6.742054 6.328666 4.824631 12.629032 -6.221091 -15.665236 0.000000 0.000000 0.000000 2.644571 -17.200958 5.700321 -23.148865 -46.967412 4.721788 23.013163 -27.870685 -4.781342 0.000000 0.000000 0.000000 4.837326 11.011940 4.345279 60.081190 49.903506 22.733425 -11.754597 65.633435 -3.550572 0.000000 0.000000 0.000000 
-0.050032 0.956236 0.007666 -1.862473 -7.647031 12.196313 5.160404 -0.458786 -6.978508 0.729902 0.253496 -7.807553 0.296930 4.695744 14.544682 0.000000 0.000000 0.000000 -0.743615 0.987281 -9.901792 -4.047467 -0.279943 -9.140164 5.438445 0.694027 18.846868 0.000000 0.000000 0.000000 3.158030 -0.304554 2.088865 -2.967952 1.326017 -2.526077 -6.922569 6.631624 4.904118 12.323836 -6.085070 -15.383805 0.000000 0.000000 0.000000 2.682079 -17.516744 5.792406 -23.645911 -48.096267 5.065091 25.203692 -30.538477 -5.898087 0.000000 0.000000 0.000000 5.174636 12.007507 4.807313 60.217459 51.325478 23.750896 -8.948025 63.329185 -1.702040 0.000000 0.000000 0.000000 
-0.050659 0.955919 0.006180 -1.893652 -7.780572 12.190160 5.531871 -0.437794 -6.811917 0.490244 0.274722 -7.996976 0.247650 4.547504 14.335565 0.000000 0.000000 0.000000 -0.713738 1.001181 -10.032400 -3.891696 -0.287053 -9.230746 5.542316 0.817543 18.909875 0.000000 0.000000 0.000000 3.210802 -0.290646 1.828105 -3.176710 1.433515 -1.959926 -7.018219 6.841188 4.138452 12.480778 -6.202351 -15.072309 0.000000 0.000000 0.000000 3.405457 -18.419589 6.040586 -23.351988 -49.731830 5.272751 26.072897 -29.821148 -6.009387 0.000000 0.000000 0.000000 4.948185 13.544568 5.450788 61.358973 53.422795 25.916411 -7.962581 59.941973 -1.120965 0.000000 0.000000 0.000000 
-0.051292 0.955665 0.004796 -1.813399 -7.721692 12.016640 5.510273 -0.427013 -6.498575 0.336221 0.311252 -8.609592 0.195199 4.571174 14.726867 0.000000 0.000000 0.000000 -0.669723 0.985537 -9.880223 -3.973905 -0.284381 -9.205370 5.518723 1.028062 18.436065 0.000000 0.000000 0.000000 3.057349 -0.264690 1.611564 -3.321649 1.499730 -1.915532 -6.752368 7.304988 4.228561 12.180591 -6.070299 -14.696025 0.000000 0.000000 0.000000 3.786588 -18.789681 6.128278 -23.473735 -50.834654 5.443938 26.133307 -30.292072 -6.164816 0.000000 0.000000 0.000000 4.749154 14.270152 5.779616 61.428283 54.371246 26.703512 -6.192727 59.022782 -0.082946 0.000000 0.000000 0.000000 
-0.051723 0.955751 0.004316 -1.711450 -7.109054 11.952002 5.488988 -0.424580 -6.204664 0.268092 0.349869 -9.395310 -0.317959 3.948255 15.120796 0.000000 0.000000 0.000000 -0.757712 0.967149 -9.726530 -4.045534 -0.289084 -9.277480 5.337438 0.877937 18.355642 0.000000 0.000000 0.000000 3.196760 -0.262303 1.444703 -3.463197 1.572435 -1.645952 -6.873024 7.352820 4.250678 11.977594 -6.027752 -14.187126 0.000000 0.000000 0.000000 3.864280 -18.268193 5.958935 -24.381737 -50.913545 5.753596 27.114816 -32.906742 -7.085840 0.000000 0.000000 0.000000 3.981107 13.876804 5.567023 61.896748 54.034428 26.864967 -4.884353 60.866335 0.746600 0.000000 0.000000 0.000000 
